<svg xmlns="http://www.w3.org/2000/svg" xmlns:xlink="http://www.w3.org/1999/xlink" id="visual" viewBox="0 0 1280 720" width="1280" height="720" version="1.1"><rect x="0" y="0" width="1280" height="720" fill="#000521"/><defs><linearGradient id="grad1_0" x1="43.8%" y1="0%" x2="100%" y2="100%"><stop offset="14.444444444444446%" stop-color="#000521" stop-opacity="1"/><stop offset="85.55555555555554%" stop-color="#000521" stop-opacity="1"/></linearGradient></defs><defs><linearGradient id="grad2_0" x1="0%" y1="0%" x2="56.3%" y2="100%"><stop offset="14.444444444444446%" stop-color="#000521" stop-opacity="1"/><stop offset="85.55555555555554%" stop-color="#000521" stop-opacity="1"/></linearGradient></defs><g transform="translate(1280, 0)"><path d="M0 540C-54.5 549.4 -109 558.7 -139.8 521.6C-170.5 484.5 -177.6 400.9 -217 375.9C-256.4 350.8 -328.3 384.4 -373.4 373.4C-418.4 362.3 -436.6 306.7 -447.7 258.5C-458.9 210.3 -463 169.7 -477.2 127.9C-491.4 86 -515.7 43 -540 0L0 0Z" fill="#FFF689"/></g><g transform="translate(0, 720)"><path d="M0 -540C45.3 -520.2 90.5 -500.4 127.3 -475.2C164.2 -450.1 192.5 -419.6 235 -407C277.5 -394.5 334 -399.9 381.1 -381.1C428.2 -362.4 465.9 -319.5 467.7 -270C469.4 -220.5 435.3 -164.4 441.4 -118.3C447.5 -72.2 493.8 -36.1 540 0L0 0Z" fill="#FFF689"/></g></svg>