<svg id="visual" viewBox="0 0 1280 600" width="1280" height="600" xmlns="http://www.w3.org/2000/svg" xmlns:xlink="http://www.w3.org/1999/xlink" version="1.1"><rect x="0" y="0" width="1280" height="600" fill="#002233"></rect><path d="M535 0L522.7 8.3C510.3 16.7 485.7 33.3 525.2 50C564.7 66.7 668.3 83.3 704.3 100C740.3 116.7 708.7 133.3 646.8 150C585 166.7 493 183.3 496.3 200C499.7 216.7 598.3 233.3 597.5 250C596.7 266.7 496.3 283.3 448.8 300C401.3 316.7 406.7 333.3 470.2 350C533.7 366.7 655.3 383.3 700.8 400C746.3 416.7 715.7 433.3 688.7 450C661.7 466.7 638.3 483.3 602.5 500C566.7 516.7 518.3 533.3 534.8 550C551.3 566.7 632.7 583.3 673.3 591.7L714 600L0 600L0 591.7C0 583.3 0 566.7 0 550C0 533.3 0 516.7 0 500C0 483.3 0 466.7 0 450C0 433.3 0 416.7 0 400C0 383.3 0 366.7 0 350C0 333.3 0 316.7 0 300C0 283.3 0 266.7 0 250C0 233.3 0 216.7 0 200C0 183.3 0 166.7 0 150C0 133.3 0 116.7 0 100C0 83.3 0 66.7 0 50C0 33.3 0 16.7 0 8.3L0 0Z" fill="#fff" stroke-linecap="round" stroke-linejoin="miter"></path></svg>